<svg width="72" height="80" viewBox="0 0 72 80" fill="none" xmlns="http://www.w3.org/2000/svg">
<path d="M25.0625 40C25.0625 40.8624 25.7626 41.5625 26.625 41.5625C27.4874 41.5625 28.1875 40.8624 28.1875 40C28.1875 39.1376 27.4874 38.4375 26.625 38.4375C25.7626 38.4375 25.0625 39.1376 25.0625 40Z" fill="#B71833"/>
<path d="M7.875 80H64.125C68.4329 80 71.9375 76.4954 71.9375 72.1875V7.8125C71.9375 3.50464 68.4329 0 64.125 0H7.875C3.56714 0 0.0625 3.50464 0.0625 7.8125V14.0625C0.0625 14.9255 0.761963 15.625 1.625 15.625H12.5625V64.375H1.625C0.761963 64.375 0.0625 65.0745 0.0625 65.9375V72.1875C0.0625 76.4954 3.56714 80 7.875 80ZM68.8125 7.8125V72.1875C68.8125 74.7723 66.7098 76.875 64.125 76.875H14.1207C15.104 75.5682 15.6875 73.9447 15.6875 72.1875V7.8125C15.6875 6.09924 15.1382 4.47021 14.1244 3.125H64.125C66.7098 3.125 68.8125 5.22766 68.8125 7.8125ZM3.1875 12.5V7.8125C3.1875 5.22766 5.29016 3.125 7.875 3.125C10.4641 3.125 12.5625 5.22339 12.5625 7.8125V12.5H3.1875ZM3.1875 67.5H12.5625V72.1875C12.5625 74.7723 10.4598 76.875 7.875 76.875C5.29016 76.875 3.1875 74.7723 3.1875 72.1875V67.5Z" fill="#B71833"/>
<path d="M23.5 32.1875H61C61.863 32.1875 62.5625 31.488 62.5625 30.625V10.9375C62.5625 10.0745 61.863 9.375 61 9.375H23.5C22.637 9.375 21.9375 10.0745 21.9375 10.9375V30.625C21.9375 31.488 22.637 32.1875 23.5 32.1875ZM25.0625 12.5H59.4375V29.0625H25.0625V12.5Z" fill="#B71833"/>
<path d="M32.875 38.4375C32.012 38.4375 31.3125 39.137 31.3125 40C31.3125 40.863 32.012 41.5625 32.875 41.5625H57.875C58.738 41.5625 59.4375 40.863 59.4375 40C59.4375 39.137 58.738 38.4375 57.875 38.4375H32.875Z" fill="#B71833"/>
<path d="M23.5 61.25H61C61.863 61.25 62.5625 60.5505 62.5625 59.6875C62.5625 58.8245 61.863 58.125 61 58.125H23.5C22.637 58.125 21.9375 58.8245 21.9375 59.6875C21.9375 60.5505 22.637 61.25 23.5 61.25Z" fill="#B71833"/>
<path d="M23.5 67.5H61C61.863 67.5 62.5625 66.8005 62.5625 65.9375C62.5625 65.0745 61.863 64.375 61 64.375H23.5C22.637 64.375 21.9375 65.0745 21.9375 65.9375C21.9375 66.8005 22.637 67.5 23.5 67.5Z" fill="#B71833"/>
<path d="M23.5 55H61C61.863 55 62.5625 54.3005 62.5625 53.4375C62.5625 52.5745 61.863 51.875 61 51.875H23.5C22.637 51.875 21.9375 52.5745 21.9375 53.4375C21.9375 54.3005 22.637 55 23.5 55Z" fill="#B71833"/>
</svg>
