<svg width="16" height="17" viewBox="0 0 16 17" fill="none" xmlns="http://www.w3.org/2000/svg">
<path d="M14.6667 2.71768H1.33334C0.597969 2.71768 0 3.31565 0 4.05103V13.3844C0 14.1197 0.597969 14.7177 1.33334 14.7177H14.6667C15.402 14.7177 16 14.1197 16 13.3843V4.05103C16 3.31565 15.402 2.71768 14.6667 2.71768ZM1.33334 3.38434H14.6667C14.7158 3.38434 14.7591 3.40224 14.8052 3.41237C13.6508 4.46884 9.82322 7.97046 8.48375 9.17731C8.37894 9.27171 8.21 9.38434 8.00003 9.38434C7.79006 9.38434 7.62113 9.27171 7.51597 9.17699C6.17663 7.97034 2.34878 4.46853 1.19463 3.41243C1.24081 3.40231 1.28419 3.38434 1.33334 3.38434ZM0.666656 13.3843V4.05103C0.666656 3.98571 0.686344 3.92646 0.703969 3.86678C1.58747 4.6754 4.25822 7.11865 5.98997 8.69343C4.26384 10.1762 1.59241 12.7089 0.701875 13.5581C0.686156 13.5014 0.666656 13.446 0.666656 13.3843ZM14.6667 14.051H1.33334C1.28009 14.051 1.23275 14.0325 1.18303 14.0206C2.10325 13.1433 4.79169 10.596 6.48747 9.14531C6.70853 9.34584 6.91047 9.52868 7.06966 9.67212C7.34441 9.92018 7.666 10.051 8 10.051C8.334 10.051 8.65559 9.92015 8.93 9.67243C9.08925 9.52893 9.29134 9.34593 9.51253 9.14531C11.2084 10.5959 13.8965 13.143 14.817 14.0206C14.7673 14.0325 14.72 14.051 14.6667 14.051ZM15.3333 13.3843C15.3333 13.4459 15.3138 13.5014 15.2982 13.5581C14.4073 12.7085 11.7362 10.176 10.0101 8.69346C11.7419 7.11868 14.4122 4.67565 15.296 3.86671C15.3137 3.9264 15.3333 3.98568 15.3333 4.05099V13.3843Z" fill="#463538"/>
</svg>
