<svg width="13" height="14" viewBox="0 0 13 14" fill="none" xmlns="http://www.w3.org/2000/svg">
<g clip-path="url(#clip0_17_37)">
<path d="M9.481 0.217682H3.51898C1.57858 0.217682 0 1.79626 0 3.73666V9.69878C0 11.6391 1.57858 13.2177 3.51898 13.2177H9.4811C11.4214 13.2177 13 11.6391 13 9.69878V3.73666C13 1.79626 11.4214 0.217682 9.481 0.217682V0.217682ZM12.2379 9.69878C12.2379 11.2188 11.0012 12.4555 9.481 12.4555H3.51898C1.99881 12.4555 0.762114 11.2188 0.762114 9.69878V3.73666C0.762114 2.2165 1.99881 0.979796 3.51898 0.979796H9.4811C11.0012 0.979796 12.2379 2.2165 12.2379 3.73666V9.69878Z" fill="#463538"/>
<path d="M6.50002 3.16309C4.53998 3.16309 2.94543 4.75763 2.94543 6.71767C2.94543 8.6777 4.53998 10.2722 6.50002 10.2722C8.46005 10.2722 10.0546 8.6777 10.0546 6.71767C10.0546 4.75763 8.46005 3.16309 6.50002 3.16309ZM6.50002 9.51013C4.96032 9.51013 3.70755 8.25747 3.70755 6.71767C3.70755 5.17797 4.96032 3.9252 6.50002 3.9252C8.03982 3.9252 9.29248 5.17797 9.29248 6.71767C9.29248 8.25747 8.03982 9.51013 6.50002 9.51013Z" fill="#463538"/>
<path d="M10.1396 1.9007C9.56035 1.9007 9.08923 2.37191 9.08923 2.95103C9.08923 3.53025 9.56035 4.00147 10.1396 4.00147C10.7188 4.00147 11.19 3.53025 11.19 2.95103C11.19 2.37181 10.7188 1.9007 10.1396 1.9007ZM10.1396 3.23925C9.98068 3.23925 9.85135 3.10992 9.85135 2.95103C9.85135 2.79204 9.98068 2.66281 10.1396 2.66281C10.2986 2.66281 10.4279 2.79204 10.4279 2.95103C10.4279 3.10992 10.2986 3.23925 10.1396 3.23925Z" fill="#463538"/>
</g>
<defs>
<clipPath id="clip0_17_37">
<rect width="13" height="13" fill="white" transform="translate(0 0.217682)"/>
</clipPath>
</defs>
</svg>
