<svg width="14" height="13" viewBox="0 0 14 13" fill="none" xmlns="http://www.w3.org/2000/svg">
<path d="M6.6889 0.845965C6.83858 0.385309 7.49028 0.38531 7.63996 0.845964L8.48501 3.44678C8.68582 4.06481 9.26176 4.48325 9.9116 4.48325H12.6463C13.1306 4.48325 13.332 5.10306 12.9401 5.38776L10.7278 6.99515C10.202 7.37712 9.98205 8.05417 10.1829 8.6722L11.0279 11.273C11.1776 11.7337 10.6503 12.1167 10.2585 11.832L8.04611 10.2246C7.52038 9.84268 6.80848 9.84268 6.28275 10.2246L4.07037 11.832C3.67851 12.1167 3.15127 11.7337 3.30095 11.273L4.146 8.6722C4.34681 8.05417 4.12683 7.37712 3.60109 6.99515L1.38871 5.38776C0.996854 5.10306 1.19824 4.48325 1.6826 4.48325H4.41726C5.0671 4.48325 5.64303 4.06481 5.84384 3.44678L6.6889 0.845965Z" stroke="#FFD43A"/>
</svg>
