<svg width="82" height="79" viewBox="0 0 82 79" fill="none" xmlns="http://www.w3.org/2000/svg">
<path d="M39.1267 3.72026C39.7746 1.98756 42.2254 1.98757 42.8733 3.72025L50.543 24.2315C51.3862 26.4865 53.4957 28.0192 55.901 28.1243L77.7784 29.0803C79.6265 29.161 80.3838 31.4919 78.9361 32.6435L61.7989 46.2761C59.9147 47.7749 59.109 50.2548 59.7523 52.5749L65.6036 73.6769C66.0979 75.4595 64.1151 76.9 62.5725 75.8791L44.3115 63.7933C42.3038 62.4645 39.6962 62.4645 37.6886 63.7933L19.4275 75.8791C17.8849 76.9 15.9021 75.4595 16.3964 73.6769L22.2477 52.5749C22.891 50.2548 22.0853 47.7749 20.2011 46.2761L3.06386 32.6435C1.61618 31.4919 2.37354 29.161 4.22163 29.0803L26.099 28.1243C28.5043 28.0192 30.6138 26.4865 31.457 24.2315L39.1267 3.72026Z" stroke="#B71833" stroke-width="4"/>
</svg>
