<svg width="14" height="13" viewBox="0 0 14 13" fill="none" xmlns="http://www.w3.org/2000/svg">
<path d="M6.48242 0.946584C6.78177 0.0252728 8.08518 0.0252721 8.38453 0.946583L9.22958 3.5474C9.36346 3.95942 9.74741 4.23838 10.1806 4.23838H12.9153C13.884 4.23838 14.2868 5.47799 13.5031 6.0474L11.2907 7.65479C10.9402 7.90943 10.7936 8.3608 10.9274 8.77282L11.7725 11.3736C12.0718 12.2949 11.0174 13.0611 10.2336 12.4917L8.02126 10.8843C7.67077 10.6296 7.19617 10.6296 6.84569 10.8843L4.6333 12.4917C3.84959 13.0611 2.79511 12.2949 3.09446 11.3736L3.93952 8.77282C4.07339 8.3608 3.92673 7.90943 3.57624 7.65479L1.36386 6.0474C0.580149 5.47799 0.982924 4.23838 1.95165 4.23838H4.6863C5.11953 4.23838 5.50349 3.95942 5.63736 3.5474L6.48242 0.946584Z" fill="#FFD43A"/>
</svg>
